<?xml version="1.0"?>
<svg xmlns="http://www.w3.org/2000/svg" xmlns:xlink="http://www.w3.org/1999/xlink" version="1.1" viewBox="0 0 252 252" width="96px" height="96px"><g fill="none" fill-rule="nonzero" stroke="none" stroke-width="none" stroke-linecap="none" stroke-linejoin="miter" stroke-miterlimit="10" stroke-dasharray="" stroke-dashoffset="0" font-family="none" font-weight="none" font-size="none" text-anchor="none" style="mix-blend-mode: normal"><path d="M0,252v-252h252v252z" fill="none" stroke="none" stroke-width="1" stroke-linecap="butt"/><g><g id="surface1"><path d="M52.5,225.75c7.3418,0 10.5,-4.71679 10.5,-11.0332v-20.4668" fill="none" stroke="#78909c" stroke-width="10.5" stroke-linecap="round"/><path d="M213.6709,78.75c1.0459,-3.1582 1.5791,-6.8291 1.5791,-10.5c0,-17.3291 -14.1709,-31.5 -31.5,-31.5c-8.9209,0 -16.7959,3.6709 -22.5791,9.9668c-4.7168,-15.2168 -18.88769,-25.7168 -35.1709,-25.7168c-16.7959,0 -30.4541,11.03321 -35.1709,26.25c-4.7373,-3.1582 -11.0332,-5.25 -17.3291,-5.25c-17.3291,0 -31.5,14.1709 -31.5,31.5c0,1.5791 0,3.6709 0.53321,5.25z" fill="#cfd8dc" stroke="none" stroke-width="1" stroke-linecap="butt"/><path d="M31.5,68.25h189v115.5h-189z" fill="#0275d8" stroke="none" stroke-width="1" stroke-linecap="butt"/><path d="M136.5,126c0,5.80371 -4.69629,10.5 -10.5,10.5c-5.80371,0 -10.5,-4.69629 -10.5,-10.5c0,-5.80371 4.69629,-10.5 10.5,-10.5c5.80371,0 10.5,4.69629 10.5,10.5z" fill="#ffffff" stroke="none" stroke-width="1" stroke-linecap="butt"/><path d="M178.5,126c0,5.80371 -4.69629,10.5 -10.5,10.5c-5.80371,0 -10.5,-4.69629 -10.5,-10.5c0,-5.80371 4.69629,-10.5 10.5,-10.5c5.80371,0 10.5,4.69629 10.5,10.5z" fill="#ffffff" stroke="none" stroke-width="1" stroke-linecap="butt"/><path d="M94.5,126c0,5.80371 -4.69629,10.5 -10.5,10.5c-5.80371,0 -10.5,-4.69629 -10.5,-10.5c0,-5.80371 4.69629,-10.5 10.5,-10.5c5.80371,0 10.5,4.69629 10.5,10.5z" fill="#ffffff" stroke="none" stroke-width="1" stroke-linecap="butt"/><path d="M63,194.25v-10.5" fill="none" stroke="#546e7a" stroke-width="10.5" stroke-linecap="butt"/><path d="M84,225.75c7.3418,0 10.5,-4.71679 10.5,-11.0332v-20.4668" fill="none" stroke="#78909c" stroke-width="10.5" stroke-linecap="round"/><path d="M94.5,194.25v-10.5" fill="none" stroke="#546e7a" stroke-width="10.5" stroke-linecap="butt"/><path d="M152.25,225.75c7.3418,0 10.5,-4.71679 10.5,-11.0332v-20.4668" fill="none" stroke="#78909c" stroke-width="10.5" stroke-linecap="round"/><path d="M162.75,194.25v-10.5" fill="none" stroke="#546e7a" stroke-width="10.5" stroke-linecap="butt"/><path d="M183.75,225.75c7.3418,0 10.5,-4.71679 10.5,-11.0332v-20.4668" fill="none" stroke="#78909c" stroke-width="10.5" stroke-linecap="round"/><path d="M194.25,194.25v-10.5" fill="none" stroke="#546e7a" stroke-width="10.5" stroke-linecap="butt"/></g></g></g></svg>
